<svg width="112" height="22" viewBox="0 0 112 22" fill="none" xmlns="http://www.w3.org/2000/svg">
<path d="M102.681 20.0004V5.91238H98.0015V2.19238H111.489V5.91238H106.809V20.0004H102.681Z" fill="white"/>
<path d="M88.6754 20.1444C88.2914 20.1444 87.8354 20.1044 87.3074 20.0244C86.7954 19.9444 86.2994 19.7764 85.8194 19.5204C85.3394 19.2484 84.9394 18.8404 84.6194 18.2964C84.2994 17.7364 84.1394 16.9844 84.1394 16.0404V6.46438C84.1394 5.63238 84.2674 4.93638 84.5234 4.37638C84.7954 3.81638 85.1314 3.38438 85.5314 3.08038C85.9474 2.76038 86.4114 2.53638 86.9234 2.40838C87.4354 2.26438 87.9314 2.19238 88.4114 2.19238C89.6914 2.19238 90.8034 2.21638 91.7474 2.26438C92.6914 2.29638 93.5234 2.33638 94.2434 2.38438C94.9634 2.43238 95.6114 2.48038 96.1874 2.52838V6.03238H89.6594C89.2274 6.03238 88.8914 6.13638 88.6514 6.34438C88.4114 6.53638 88.2914 6.84838 88.2914 7.28038V9.24838L95.0114 9.48838V12.7524L88.2914 12.9684V14.8404C88.2914 15.1924 88.3474 15.4724 88.4594 15.6804C88.5714 15.8724 88.7234 16.0164 88.9154 16.1124C89.1074 16.2084 89.3154 16.2564 89.5394 16.2564H96.1874V19.7364C95.4834 19.8164 94.6994 19.8884 93.8354 19.9524C92.9714 20.0164 92.0914 20.0564 91.1954 20.0724C90.3154 20.1044 89.4754 20.1284 88.6754 20.1444Z" fill="white"/>
<path d="M74.0157 20.1444C73.6317 20.1444 73.1757 20.1044 72.6477 20.0244C72.1357 19.9444 71.6397 19.7764 71.1597 19.5204C70.6797 19.2484 70.2797 18.8404 69.9597 18.2964C69.6397 17.7364 69.4797 16.9844 69.4797 16.0404V6.46438C69.4797 5.63238 69.6077 4.93638 69.8637 4.37638C70.1357 3.81638 70.4717 3.38438 70.8717 3.08038C71.2877 2.76038 71.7517 2.53638 72.2637 2.40838C72.7757 2.26438 73.2717 2.19238 73.7517 2.19238C75.0317 2.19238 76.1437 2.21638 77.0877 2.26438C78.0317 2.29638 78.8637 2.33638 79.5837 2.38438C80.3037 2.43238 80.9517 2.48038 81.5277 2.52838V6.03238H74.9997C74.5677 6.03238 74.2317 6.13638 73.9917 6.34438C73.7517 6.53638 73.6317 6.84838 73.6317 7.28038V9.24838L80.3517 9.48838V12.7524L73.6317 12.9684V14.8404C73.6317 15.1924 73.6877 15.4724 73.7997 15.6804C73.9117 15.8724 74.0637 16.0164 74.2557 16.1124C74.4477 16.2084 74.6557 16.2564 74.8797 16.2564H81.5277V19.7364C80.8237 19.8164 80.0397 19.8884 79.1757 19.9524C78.3117 20.0164 77.4317 20.0564 76.5357 20.0724C75.6557 20.1044 74.8157 20.1284 74.0157 20.1444Z" fill="white"/>
<path d="M55.5896 20.308V6.772C55.5896 5.94 55.7176 5.244 55.9736 4.684C56.2456 4.124 56.5816 3.692 56.9816 3.388C57.3976 3.068 57.8616 2.844 58.3736 2.716C58.8856 2.572 59.3816 2.5 59.8616 2.5C60.3896 2.5 61.0856 2.508 61.9496 2.524C62.8296 2.54 63.7656 2.572 64.7576 2.62C65.7656 2.668 66.7256 2.748 67.6376 2.86V6.34H61.0376C60.5896 6.34 60.2616 6.46 60.0536 6.7C59.8456 6.94 59.7416 7.22 59.7416 7.54V10.036L66.4616 10.252V13.54L59.7416 13.756V20.308H55.5896Z" fill="white"/>
<path d="M47.6604 20.0004V2.19238H51.8124V20.0004H47.6604Z" fill="white"/>
<path d="M36.5784 20.0004V5.91238H31.8984V2.19238H45.3864V5.91238H40.7064V20.0004H36.5784Z" fill="white"/>
<path d="M24.389 20.1444C23.365 20.1444 22.453 20.0244 21.653 19.7844C20.869 19.5444 20.189 19.1044 19.613 18.4644C19.053 17.8244 18.621 16.9044 18.317 15.7044C18.029 14.5044 17.885 12.9524 17.885 11.0484C17.885 9.19241 18.037 7.68041 18.341 6.51241C18.661 5.32841 19.101 4.41641 19.661 3.77641C20.237 3.12041 20.925 2.66441 21.725 2.40841C22.525 2.15241 23.421 2.02441 24.413 2.02441C25.309 2.02441 26.125 2.07241 26.861 2.16841C27.597 2.26441 28.237 2.38441 28.781 2.52841C29.325 2.65641 29.773 2.79241 30.125 2.93641V6.15241C29.821 6.08841 29.429 6.02441 28.949 5.96041C28.469 5.89641 27.917 5.84841 27.293 5.81641C26.669 5.76841 26.005 5.74441 25.301 5.74441C24.709 5.74441 24.197 5.80841 23.765 5.93641C23.349 6.06441 23.013 6.32041 22.757 6.70441C22.517 7.07241 22.333 7.60841 22.205 8.31241C22.093 9.01641 22.037 9.93641 22.037 11.0724C22.037 12.1444 22.085 13.0324 22.181 13.7364C22.277 14.4404 22.445 14.9844 22.685 15.3684C22.925 15.7524 23.253 16.0244 23.669 16.1844C24.101 16.3444 24.653 16.4244 25.325 16.4244C26.541 16.4244 27.525 16.4004 28.277 16.3524C29.045 16.3044 29.661 16.2484 30.125 16.1844V19.4004C29.709 19.5604 29.229 19.6964 28.685 19.8084C28.141 19.9044 27.517 19.9844 26.813 20.0484C26.109 20.1124 25.301 20.1444 24.389 20.1444Z" fill="white"/>
<path d="M0.372559 20.0004L5.79656 2.19238H10.9806L16.4046 20.0004H12.1086L11.1966 16.7604H5.53256L4.64456 20.0004H0.372559ZM6.49256 13.0404H10.2366L8.36456 5.74438L6.49256 13.0404Z" fill="white"/>
<mask id="mask0_359_328" style="mask-type:alpha" maskUnits="userSpaceOnUse" x="0" y="2" width="17" height="18">
<path d="M0.120117 20L5.40012 2.16797H11.2081L16.4881 20H11.6641L10.9441 17.168H5.59212L4.89612 20H0.120117ZM6.67212 12.992H9.86412L8.25612 6.12797L6.67212 12.992Z" fill="white"/>
</mask>
<g mask="url(#mask0_359_328)">
<rect x="2" y="7.5" width="12" height="2.33333" fill="black"/>
</g>
</svg>
