<svg width="113" height="23" viewBox="0 0 113 23" fill="none" xmlns="http://www.w3.org/2000/svg">
<rect width="112" height="20" transform="translate(0.4104 2.50049)" fill="white"/>
<path d="M103.092 20.5004V6.41238H98.4119V2.69238H111.9V6.41238H107.22V20.5004H103.092Z" fill="black"/>
<path d="M89.0858 20.6444C88.7018 20.6444 88.2458 20.6044 87.7178 20.5244C87.2058 20.4444 86.7098 20.2764 86.2298 20.0204C85.7498 19.7484 85.3498 19.3404 85.0298 18.7964C84.7098 18.2364 84.5498 17.4844 84.5498 16.5404V6.96438C84.5498 6.13238 84.6778 5.43638 84.9338 4.87638C85.2058 4.31638 85.5418 3.88438 85.9418 3.58038C86.3578 3.26038 86.8218 3.03638 87.3338 2.90838C87.8458 2.76438 88.3418 2.69238 88.8218 2.69238C90.1018 2.69238 91.2138 2.71638 92.1578 2.76438C93.1018 2.79638 93.9338 2.83638 94.6538 2.88438C95.3738 2.93238 96.0218 2.98038 96.5978 3.02838V6.53238H90.0698C89.6378 6.53238 89.3018 6.63638 89.0618 6.84438C88.8218 7.03638 88.7018 7.34838 88.7018 7.78038V9.74838L95.4218 9.98838V13.2524L88.7018 13.4684V15.3404C88.7018 15.6924 88.7578 15.9724 88.8698 16.1804C88.9818 16.3724 89.1338 16.5164 89.3258 16.6124C89.5178 16.7084 89.7258 16.7564 89.9498 16.7564H96.5978V20.2364C95.8938 20.3164 95.1098 20.3884 94.2458 20.4524C93.3818 20.5164 92.5018 20.5564 91.6058 20.5724C90.7258 20.6044 89.8858 20.6284 89.0858 20.6444Z" fill="black"/>
<path d="M74.4261 20.6444C74.0421 20.6444 73.5861 20.6044 73.0581 20.5244C72.5461 20.4444 72.0501 20.2764 71.5701 20.0204C71.0901 19.7484 70.6901 19.3404 70.3701 18.7964C70.0501 18.2364 69.8901 17.4844 69.8901 16.5404V6.96438C69.8901 6.13238 70.0181 5.43638 70.2741 4.87638C70.5461 4.31638 70.8821 3.88438 71.2821 3.58038C71.6981 3.26038 72.1621 3.03638 72.6741 2.90838C73.1861 2.76438 73.6821 2.69238 74.1621 2.69238C75.4421 2.69238 76.5541 2.71638 77.4981 2.76438C78.4421 2.79638 79.2741 2.83638 79.9941 2.88438C80.7141 2.93238 81.3621 2.98038 81.9381 3.02838V6.53238H75.4101C74.9781 6.53238 74.6421 6.63638 74.4021 6.84438C74.1621 7.03638 74.0421 7.34838 74.0421 7.78038V9.74838L80.7621 9.98838V13.2524L74.0421 13.4684V15.3404C74.0421 15.6924 74.0981 15.9724 74.2101 16.1804C74.3221 16.3724 74.4741 16.5164 74.6661 16.6124C74.8581 16.7084 75.0661 16.7564 75.2901 16.7564H81.9381V20.2364C81.2341 20.3164 80.4501 20.3884 79.5861 20.4524C78.7221 20.5164 77.8421 20.5564 76.9461 20.5724C76.0661 20.6044 75.2261 20.6284 74.4261 20.6444Z" fill="black"/>
<path d="M56 20.808V7.272C56 6.44 56.128 5.744 56.384 5.184C56.656 4.624 56.992 4.192 57.392 3.888C57.808 3.568 58.272 3.344 58.784 3.216C59.296 3.072 59.792 3 60.272 3C60.8 3 61.496 3.008 62.36 3.024C63.24 3.04 64.176 3.072 65.168 3.12C66.176 3.168 67.136 3.248 68.048 3.36V6.84H61.448C61 6.84 60.672 6.96 60.464 7.2C60.256 7.44 60.152 7.72 60.152 8.04V10.536L66.872 10.752V14.04L60.152 14.256V20.808H56Z" fill="black"/>
<path d="M48.0708 20.5004V2.69238H52.2228V20.5004H48.0708Z" fill="black"/>
<path d="M36.9888 20.5004V6.41238H32.3088V2.69238H45.7968V6.41238H41.1168V20.5004H36.9888Z" fill="black"/>
<path d="M24.7994 20.6444C23.7754 20.6444 22.8634 20.5244 22.0634 20.2844C21.2794 20.0444 20.5994 19.6044 20.0234 18.9644C19.4634 18.3244 19.0314 17.4044 18.7274 16.2044C18.4394 15.0044 18.2954 13.4524 18.2954 11.5484C18.2954 9.69241 18.4474 8.18041 18.7514 7.01241C19.0714 5.82841 19.5114 4.91641 20.0714 4.27641C20.6474 3.62041 21.3354 3.16441 22.1354 2.90841C22.9354 2.65241 23.8314 2.52441 24.8234 2.52441C25.7194 2.52441 26.5354 2.57241 27.2714 2.66841C28.0074 2.76441 28.6474 2.88441 29.1914 3.02841C29.7354 3.15641 30.1834 3.29241 30.5354 3.43641V6.65241C30.2314 6.58841 29.8394 6.52441 29.3594 6.46041C28.8794 6.39641 28.3274 6.34841 27.7034 6.31641C27.0794 6.26841 26.4154 6.24441 25.7114 6.24441C25.1194 6.24441 24.6074 6.30841 24.1754 6.43641C23.7594 6.56441 23.4234 6.82041 23.1674 7.20441C22.9274 7.57241 22.7434 8.10841 22.6154 8.81241C22.5034 9.51641 22.4474 10.4364 22.4474 11.5724C22.4474 12.6444 22.4954 13.5324 22.5914 14.2364C22.6874 14.9404 22.8554 15.4844 23.0954 15.8684C23.3354 16.2524 23.6634 16.5244 24.0794 16.6844C24.5114 16.8444 25.0634 16.9244 25.7354 16.9244C26.9514 16.9244 27.9354 16.9004 28.6874 16.8524C29.4554 16.8044 30.0714 16.7484 30.5354 16.6844V19.9004C30.1194 20.0604 29.6394 20.1964 29.0954 20.3084C28.5514 20.4044 27.9274 20.4844 27.2234 20.5484C26.5194 20.6124 25.7114 20.6444 24.7994 20.6444Z" fill="black"/>
<path d="M0.782959 20.5004L6.20696 2.69238H11.391L16.815 20.5004H12.519L11.607 17.2604H5.94296L5.05496 20.5004H0.782959ZM6.90296 13.5404H10.647L8.77496 6.24438L6.90296 13.5404Z" fill="black"/>
<path fill-rule="evenodd" clip-rule="evenodd" d="M13.4932 9L14.0854 11H9.6906L9.22207 9H13.4932ZM3.34355 11L3.93575 9H8.11922L7.65768 11H3.34355Z" fill="white"/>
</svg>
