<svg width="216" height="44" viewBox="0 0 216 44" fill="none" xmlns="http://www.w3.org/2000/svg">
<path d="M197.629 39.3623V12.3133H188.643V5.1709H214.54V12.3133H205.555V39.3623H197.629Z" fill="black"/>
<path d="M170.737 39.6387C170 39.6387 169.125 39.5619 168.111 39.4083C167.128 39.2547 166.176 38.9322 165.254 38.4407C164.332 37.9184 163.564 37.1351 162.95 36.0906C162.336 35.0154 162.028 33.5715 162.028 31.7591V13.3731C162.028 11.7757 162.274 10.4394 162.766 9.36418C163.288 8.28898 163.933 7.45954 164.701 6.87586C165.5 6.26146 166.391 5.83138 167.374 5.58562C168.357 5.30914 169.309 5.1709 170.231 5.1709C172.688 5.1709 174.823 5.21698 176.636 5.30914C178.448 5.37058 180.046 5.44738 181.428 5.53954C182.81 5.6317 184.055 5.72386 185.16 5.81602V12.5437H172.627C171.797 12.5437 171.152 12.7434 170.691 13.1427C170.231 13.5114 170 14.1104 170 14.9399V18.7184L182.903 19.1792V25.4461L170 25.8608V29.4551C170 30.1309 170.108 30.6685 170.323 31.0679C170.538 31.4365 170.83 31.713 171.198 31.8973C171.567 32.0816 171.966 32.1738 172.396 32.1738H185.16V38.8554C183.809 39.009 182.304 39.1472 180.645 39.2701C178.986 39.393 177.296 39.4698 175.576 39.5005C173.886 39.5619 172.273 39.608 170.737 39.6387Z" fill="black"/>
<path d="M142.591 39.6387C141.854 39.6387 140.978 39.5619 139.964 39.4083C138.981 39.2547 138.029 38.9322 137.107 38.4407C136.186 37.9184 135.418 37.1351 134.803 36.0906C134.189 35.0154 133.882 33.5715 133.882 31.7591V13.3731C133.882 11.7757 134.128 10.4394 134.619 9.36418C135.141 8.28898 135.786 7.45954 136.554 6.87586C137.353 6.26146 138.244 5.83138 139.227 5.58562C140.21 5.30914 141.162 5.1709 142.084 5.1709C144.542 5.1709 146.677 5.21698 148.489 5.30914C150.302 5.37058 151.899 5.44738 153.282 5.53954C154.664 5.6317 155.908 5.72386 157.014 5.81602V12.5437H144.48C143.651 12.5437 143.006 12.7434 142.545 13.1427C142.084 13.5114 141.854 14.1104 141.854 14.9399V18.7184L154.756 19.1792V25.4461L141.854 25.8608V29.4551C141.854 30.1309 141.961 30.6685 142.176 31.0679C142.391 31.4365 142.683 31.713 143.052 31.8973C143.42 32.0816 143.82 32.1738 144.25 32.1738H157.014V38.8554C155.662 39.009 154.157 39.1472 152.498 39.2701C150.839 39.393 149.15 39.4698 147.429 39.5005C145.74 39.5619 144.127 39.608 142.591 39.6387Z" fill="black"/>
<path d="M107.213 39.9516V13.9625C107.213 12.3651 107.458 11.0287 107.95 9.95354C108.472 8.87833 109.117 8.04889 109.885 7.46521C110.684 6.85081 111.575 6.42073 112.558 6.17497C113.541 5.89849 114.493 5.76025 115.415 5.76025C116.429 5.76025 117.765 5.77561 119.424 5.80633C121.113 5.83705 122.911 5.89849 124.815 5.99065C126.751 6.08281 128.594 6.23641 130.345 6.45145V13.1331H117.673C116.813 13.1331 116.183 13.3635 115.784 13.8243C115.384 14.2851 115.184 14.8227 115.184 15.4371V20.2294L128.087 20.6441V26.9571L115.184 27.3718V39.9516H107.213Z" fill="black"/>
<path d="M91.9883 39.3623V5.1709H99.9601V39.3623H91.9883Z" fill="black"/>
<path d="M70.7107 39.3623V12.3133H61.7251V5.1709H87.6221V12.3133H78.6365V39.3623H70.7107Z" fill="black"/>
<path d="M47.3075 39.6376C45.3414 39.6376 43.5904 39.4072 42.0544 38.9464C40.5491 38.4856 39.2435 37.6408 38.1376 36.412C37.0624 35.1832 36.2329 33.4168 35.6493 31.1128C35.0963 28.8088 34.8198 25.8289 34.8198 22.1733C34.8198 18.6097 35.1117 15.7067 35.6953 13.4641C36.3097 11.1908 37.1545 9.43981 38.2297 8.21101C39.3357 6.95149 40.6566 6.07597 42.1926 5.58445C43.7286 5.09293 45.4489 4.84717 47.3536 4.84717C49.0739 4.84717 50.6406 4.93933 52.0537 5.12365C53.4669 5.30797 54.6957 5.53837 55.7401 5.81485C56.7846 6.06061 57.6448 6.32173 58.3206 6.59821V12.7729C57.7369 12.65 56.9843 12.5272 56.0627 12.4043C55.1411 12.2814 54.0813 12.1892 52.8832 12.1278C51.6851 12.0356 50.4102 11.9896 49.0585 11.9896C47.9219 11.9896 46.9389 12.1124 46.1094 12.3582C45.3107 12.604 44.6656 13.0955 44.1741 13.8328C43.7133 14.5393 43.36 15.5684 43.1142 16.9201C42.8992 18.2718 42.7917 20.0382 42.7917 22.2193C42.7917 24.2776 42.8838 25.9825 43.0681 27.3342C43.2525 28.6859 43.575 29.7304 44.0358 30.4677C44.4966 31.2049 45.1264 31.7272 45.9251 32.0344C46.7545 32.3416 47.8144 32.4952 49.1046 32.4952C51.4393 32.4952 53.3286 32.4491 54.7725 32.3569C56.247 32.2648 57.4297 32.1573 58.3206 32.0344V38.2091C57.5219 38.5163 56.6003 38.7774 55.5558 38.9925C54.5113 39.1768 53.3133 39.3304 51.9616 39.4533C50.6099 39.5761 49.0585 39.6376 47.3075 39.6376Z" fill="black"/>
<path d="M1.1958 39.3623L11.6099 5.1709H21.5632L31.9772 39.3623H23.7289L21.9779 33.1415H11.103L9.39804 39.3623H1.1958ZM12.9462 25.9991H20.1347L16.5404 11.9907L12.9462 25.9991Z" fill="black"/>
<path fill-rule="evenodd" clip-rule="evenodd" d="M25.5983 17.2783L26.7353 21.1183H18.2973L17.3977 17.2783H25.5983ZM6.11108 21.1183L7.2481 17.2783H15.2803L14.3942 21.1183H6.11108Z" fill="white"/>
</svg>
