<svg width="20" height="20" viewBox="0 0 20 20" fill="none" xmlns="http://www.w3.org/2000/svg">
<path d="M10.0013 1.25C5.16931 1.25 1.25134 5.16797 1.25134 10C1.25134 13.582 3.40759 16.6602 6.48962 18.0156C6.46619 17.4063 6.48572 16.6719 6.64197 16.0078C6.80994 15.2969 7.76697 11.2383 7.76697 11.2383C7.76697 11.2383 7.48572 10.6797 7.48572 9.85547C7.48572 8.55859 8.23572 7.58984 9.17322 7.58984C9.97009 7.58984 10.3529 8.1875 10.3529 8.90234C10.3529 9.70313 9.84119 10.8984 9.57947 12.0078C9.36072 12.9375 10.0443 13.6914 10.9623 13.6914C12.6185 13.6914 13.7357 11.5625 13.7357 9.03906C13.7357 7.12109 12.4427 5.6875 10.0951 5.6875C7.44275 5.6875 5.7865 7.66797 5.7865 9.87891C5.7865 10.6406 6.01306 11.1797 6.36462 11.5938C6.52478 11.7852 6.54822 11.8633 6.48962 12.082C6.44665 12.2422 6.3529 12.6289 6.30994 12.7852C6.25134 13.0078 6.07165 13.0859 5.87244 13.0039C4.64978 12.5039 4.07947 11.168 4.07947 9.66016C4.07947 7.17578 6.17712 4.19531 10.3334 4.19531C13.6732 4.19531 15.8724 6.61328 15.8724 9.20703C15.8724 12.6406 13.9623 15.2031 11.1498 15.2031C10.2045 15.2031 9.31775 14.6914 9.01306 14.1133C9.01306 14.1133 8.50525 16.1289 8.39587 16.5195C8.21228 17.1953 7.849 17.8672 7.51697 18.3945C8.32239 18.6321 9.1577 18.7532 9.99744 18.7539C14.8295 18.7539 18.7474 14.8359 18.7474 10.0039C18.7474 5.17188 14.8334 1.25 10.0013 1.25Z" fill="#A1A1A1"/>
</svg>
