<svg width="15" height="22" viewBox="0 0 14 15" fill="none" xmlns="http://www.w3.org/2000/svg">
<g clip-path="url(#clip0_418_91)">
<path d="M12.8988 14.4439C12.8988 13.4506 12.8988 12.9539 12.7733 12.5497C12.4905 11.6398 11.761 10.9277 10.8288 10.6517C10.4148 10.5291 9.90603 10.5291 8.88843 10.5291H5.2426C4.225 10.5291 3.7162 10.5291 3.30218 10.6517C2.37001 10.9277 1.64054 11.6398 1.35777 12.5497C1.23218 12.9539 1.23218 13.4506 1.23218 14.4439M10.3468 4.83485C10.3468 6.60383 8.8777 8.03787 7.06551 8.03787C5.25333 8.03787 3.78426 6.60383 3.78426 4.83485C3.78426 3.06587 5.25333 1.63184 7.06551 1.63184C8.8777 1.63184 10.3468 3.06587 10.3468 4.83485Z" stroke="black" stroke-width="1.27273" stroke-linecap="round" stroke-linejoin="round"/>
</g>
<defs>
<clipPath id="clip0_418_91">
<rect width="12.8333" height="14" fill="white" transform="translate(0.529297 0.909668)"/>
</clipPath>
</defs>
</svg>
