<svg width="15" height="16" viewBox="0 0 15 16" fill="none" xmlns="http://www.w3.org/2000/svg">
<path d="M14.0337 13.7141C14.0508 13.8652 14.0355 14.0182 13.9891 14.163C13.9426 14.3077 13.8662 14.4411 13.7645 14.5542C13.6626 14.667 13.5379 14.7572 13.3988 14.8183C13.2595 14.8796 13.1089 14.9107 12.9568 14.9095H2.44618C2.29409 14.9107 2.14348 14.8796 2.00427 14.8183C1.86506 14.7572 1.7404 14.667 1.6385 14.5542C1.53687 14.4411 1.46034 14.3077 1.41394 14.163C1.36754 14.0182 1.35231 13.8652 1.36927 13.7141L2.31695 5.2171H13.0861L14.0337 13.7141Z" stroke="black" stroke-width="1.23529" stroke-linecap="round" stroke-linejoin="round"/>
<path d="M5.00977 5.2173V3.60189C5.00977 2.88784 5.29341 2.20302 5.79831 1.69811C6.30321 1.1932 6.98801 0.909546 7.70205 0.909546C8.41608 0.909546 9.10088 1.1932 9.60578 1.69811C10.1107 2.20302 10.3943 2.88784 10.3943 3.60189V5.2173" stroke="black" stroke-width="1.23529" stroke-linecap="round" stroke-linejoin="round"/>
</svg>
