<svg width="184" height="31" viewBox="0 0 184 31" fill="none" xmlns="http://www.w3.org/2000/svg">
<path d="M30.2783 14.7849C30.2783 11.9807 30.5066 9.68186 30.9631 7.88844C31.4196 6.06241 32.1043 4.64398 33.0174 3.63315C33.9304 2.62231 35.039 1.92125 36.3433 1.52996C37.6802 1.13867 39.1802 0.943024 40.8432 0.943024C42.1149 0.943024 43.3214 1.00824 44.4626 1.13867C45.6039 1.2691 46.631 1.43214 47.544 1.62778C48.2925 1.78264 48.9389 1.9375 49.4831 2.09236C49.7274 2.16189 49.8918 2.38743 49.8918 2.64146V5.70083C49.8918 6.07153 49.5492 6.35084 49.1818 6.30101C48.8385 6.25444 48.4393 6.21295 47.9842 6.17654C47.1691 6.07872 46.256 5.9972 45.2452 5.93198C44.2344 5.86677 43.1583 5.83416 42.0171 5.83416C40.5497 5.83416 39.3758 6.04611 38.4954 6.47001C37.615 6.89391 36.9792 7.75801 36.5879 9.06231C36.2292 10.3666 36.0499 12.3068 36.0499 14.8828C36.0499 16.7088 36.1314 18.2087 36.2944 19.3826C36.4901 20.5565 36.7998 21.4858 37.2237 22.1706C37.6802 22.8227 38.2998 23.2792 39.0824 23.5401C39.865 23.8009 40.8432 23.9314 42.0171 23.9314C44.0061 23.9314 45.6202 23.8825 46.8593 23.7846C47.8028 23.7121 48.6028 23.6485 49.2591 23.5938C49.5994 23.5655 49.8918 23.8337 49.8918 24.1752V27.3145C49.8918 27.571 49.7241 27.7983 49.4767 27.8661C48.4892 28.137 47.3395 28.358 46.0278 28.529C44.5278 28.7247 42.767 28.8225 40.7454 28.8225C39.0824 28.8225 37.5987 28.6432 36.2944 28.2845C34.9901 27.9258 33.8815 27.2574 32.9684 26.2791C32.088 25.2683 31.4196 23.8499 30.9631 22.0238C30.5066 20.1652 30.2783 17.7522 30.2783 14.7849Z" fill="white"/>
<path d="M54.7344 2.68985C54.7344 2.36827 54.9951 2.10757 55.3167 2.10757H75.9177C76.2393 2.10757 76.4999 2.36827 76.4999 2.68985V6.41643C76.4999 6.73802 76.2393 6.99871 75.9177 6.99871H69.0608C68.7392 6.99871 68.4785 7.25941 68.4785 7.58099V28.9157C68.4785 29.2373 68.2178 29.498 67.8962 29.498H63.2892C62.9676 29.498 62.7069 29.2373 62.7069 28.9157V7.58099C62.7069 7.25941 62.4462 6.99871 62.1247 6.99871H55.3167C54.9951 6.99871 54.7344 6.73802 54.7344 6.41643V2.68985Z" fill="white"/>
<path d="M81.519 2.68985C81.519 2.36827 81.7797 2.10757 82.1013 2.10757H86.7083C87.0299 2.10757 87.2906 2.36827 87.2906 2.68985V28.9157C87.2906 29.2373 87.0299 29.498 86.7083 29.498H82.1013C81.7797 29.498 81.519 29.2373 81.519 28.9157V2.68985Z" fill="white"/>
<path d="M92 8.12368C92 6.55851 92.3261 5.35203 92.9782 4.50423C93.663 3.62383 94.5271 3.00428 95.5705 2.6456C96.614 2.28692 97.6411 2.10757 98.652 2.10757C99.0106 2.10757 99.5487 2.10757 100.266 2.10757C101.016 2.10757 101.88 2.12388 102.858 2.15649C103.837 2.15649 104.831 2.18909 105.842 2.25431C106.853 2.28691 107.831 2.33583 108.777 2.40104C109.494 2.42579 110.128 2.46932 110.676 2.53164C110.963 2.56417 111.173 2.80991 111.173 3.09814V6.22079C111.173 6.54237 110.913 6.80307 110.591 6.80307H100.217C99.4345 6.80307 98.8313 7.01502 98.4074 7.43891C97.9835 7.86281 97.7715 8.40084 97.7715 9.05299V13.7678C97.7715 14.0836 98.0233 14.3418 98.339 14.3499L108.747 14.6145C109.063 14.6225 109.315 14.8807 109.315 15.1966V18.1209C109.315 18.4367 109.063 18.6949 108.747 18.703L98.339 18.9676C98.0233 18.9756 97.7715 19.2338 97.7715 19.5497V28.9157C97.7715 29.2373 97.5108 29.498 97.1893 29.498H92.5823C92.2607 29.498 92 29.2373 92 28.9157V8.12368Z" fill="white"/>
<path d="M115.291 8.12368C115.291 6.55851 115.617 5.35203 116.269 4.50423C116.954 3.62383 117.818 3.00428 118.862 2.6456C119.905 2.28692 120.932 2.10757 121.943 2.10757C122.921 2.10757 123.899 2.12388 124.878 2.15649C125.888 2.15649 126.867 2.17279 127.812 2.2054C128.791 2.238 129.704 2.28691 130.551 2.35213C131.432 2.38474 132.198 2.43365 132.85 2.49886C133.264 2.51855 133.624 2.53824 133.93 2.55793C134.232 2.57734 134.464 2.82963 134.464 3.13246V6.22079C134.464 6.54237 134.204 6.80307 133.882 6.80307H123.655C122.84 6.80307 122.204 6.99871 121.747 7.39C121.291 7.74869 121.063 8.31932 121.063 9.1019V12.9363C121.063 13.2521 121.314 13.5103 121.63 13.5184L132.038 13.783C132.354 13.791 132.606 14.0492 132.606 14.3651V17.2918C132.606 17.6066 132.355 17.8645 132.041 17.8738L121.628 18.1827C121.313 18.192 121.063 18.4498 121.063 18.7647V22.5036C121.063 23.1232 121.177 23.6123 121.405 23.971C121.633 24.3297 121.927 24.5905 122.285 24.7536C122.677 24.884 123.084 24.9492 123.508 24.9492H133.882C134.204 24.9492 134.464 25.2099 134.464 25.5315V28.6458C134.464 28.9376 134.248 29.1847 133.958 29.2172C133.56 29.2619 133.093 29.3066 132.557 29.3512C131.774 29.3838 130.91 29.4327 129.964 29.498C129.019 29.5306 128.073 29.5632 127.128 29.5958C126.182 29.6284 125.285 29.6447 124.437 29.6447C123.622 29.6773 122.921 29.6936 122.334 29.6936C121.715 29.6936 120.997 29.6284 120.182 29.498C119.4 29.4001 118.633 29.1719 117.883 28.8132C117.133 28.4545 116.514 27.8839 116.025 27.1013C115.536 26.3187 115.291 25.259 115.291 23.9221V8.12368Z" fill="white"/>
<path d="M138.582 8.12368C138.582 6.55851 138.908 5.35203 139.56 4.50423C140.245 3.62383 141.109 3.00428 142.153 2.6456C143.196 2.28692 144.223 2.10757 145.234 2.10757C146.212 2.10757 147.19 2.12388 148.169 2.15649C149.18 2.15649 150.158 2.17279 151.103 2.2054C152.082 2.238 152.995 2.28691 153.842 2.35213C154.723 2.38474 155.489 2.43365 156.141 2.49886C156.555 2.51855 156.915 2.53824 157.221 2.55793C157.523 2.57734 157.755 2.82963 157.755 3.13246V6.22079C157.755 6.54237 157.495 6.80307 157.173 6.80307H146.946C146.131 6.80307 145.495 6.99871 145.038 7.39C144.582 7.74869 144.354 8.31932 144.354 9.1019V12.9363C144.354 13.2521 144.605 13.5103 144.921 13.5184L155.329 13.783C155.645 13.791 155.897 14.0492 155.897 14.3651V17.2918C155.897 17.6066 155.646 17.8645 155.332 17.8738L144.919 18.1827C144.604 18.192 144.354 18.4498 144.354 18.7647V22.5036C144.354 23.1232 144.468 23.6123 144.696 23.971C144.924 24.3297 145.218 24.5905 145.576 24.7536C145.968 24.884 146.375 24.9492 146.799 24.9492H157.173C157.495 24.9492 157.755 25.2099 157.755 25.5315V28.6458C157.755 28.9376 157.539 29.1847 157.249 29.2172C156.851 29.2619 156.384 29.3066 155.848 29.3512C155.065 29.3838 154.201 29.4327 153.255 29.498C152.31 29.5306 151.364 29.5632 150.419 29.5958C149.473 29.6284 148.576 29.6447 147.728 29.6447C146.913 29.6773 146.212 29.6936 145.625 29.6936C145.006 29.6936 144.288 29.6284 143.473 29.498C142.691 29.4001 141.924 29.1719 141.174 28.8132C140.424 28.4545 139.805 27.8839 139.316 27.1013C138.827 26.3187 138.582 25.259 138.582 23.9221V8.12368Z" fill="white"/>
<path d="M161.874 2.68985C161.874 2.36827 162.134 2.10757 162.456 2.10757H183.057C183.378 2.10757 183.639 2.36827 183.639 2.68985V6.41643C183.639 6.73802 183.378 6.99871 183.057 6.99871H176.2C175.878 6.99871 175.618 7.25941 175.618 7.58099V28.9157C175.618 29.2373 175.357 29.498 175.035 29.498H170.428C170.107 29.498 169.846 29.2373 169.846 28.9157V7.58099C169.846 7.25941 169.585 6.99871 169.264 6.99871H162.456C162.134 6.99871 161.874 6.73802 161.874 6.41643V2.68985Z" fill="white"/>
<path fill-rule="evenodd" clip-rule="evenodd" d="M10.8729 13.7531C10.0437 13.7531 9.48016 12.9112 9.79623 12.1447L14.1178 1.66366C14.2976 1.22757 14.7227 0.943024 15.1944 0.943024H17.957C18.4287 0.943024 18.8538 1.22757 19.0336 1.66366L23.3552 12.1447C23.6713 12.9112 23.1077 13.7531 22.2786 13.7531H10.8729ZM7.99181 18.4114C7.52011 18.4114 7.09499 18.6959 6.91518 19.132L3.55397 27.2839C3.2379 28.0505 3.80144 28.8924 4.63059 28.8924H28.5208C29.35 28.8924 29.9135 28.0505 29.5975 27.2839L26.2362 19.132C26.0564 18.6959 25.6313 18.4114 25.1596 18.4114H7.99181Z" fill="white"/>
</svg>
