<svg width="32" height="29" viewBox="0 0 32 29" fill="none" xmlns="http://www.w3.org/2000/svg">
<path fill-rule="evenodd" clip-rule="evenodd" d="M8.27954 12.3845C7.89782 12.3845 7.64727 11.9856 7.81304 11.6417L13.2841 0.292986C13.3705 0.113861 13.5518 0 13.7506 0H18.2494C18.4482 0 18.6295 0.113861 18.7159 0.292986L24.187 11.6417C24.3527 11.9856 24.1022 12.3845 23.7205 12.3845H8.27954ZM5.27668 17.5777C5.07783 17.5777 4.89653 17.6915 4.81018 17.8706L0.052021 27.7406C-0.113745 28.0844 0.136799 28.4834 0.518521 28.4834H31.4815C31.8632 28.4834 32.1138 28.0844 31.948 27.7406L27.1898 17.8706C27.1035 17.6915 26.9222 17.5777 26.7233 17.5777H5.27668Z" fill="black"/>
</svg>
