<svg width="18" height="16" viewBox="0 0 18 16" fill="none" xmlns="http://www.w3.org/2000/svg">
<path fill-rule="evenodd" clip-rule="evenodd" d="M4.66309 6.95676C4.44867 6.95676 4.30793 6.73268 4.40104 6.53953L7.47432 0.16458C7.52282 0.0639594 7.62466 0 7.73636 0H10.2635C10.3752 0 10.477 0.0639594 10.5255 0.16458L13.5988 6.53953C13.6919 6.73268 13.5512 6.95676 13.3367 6.95676H4.66309ZM2.97629 9.87391C2.86459 9.87391 2.76275 9.93787 2.71424 10.0385L0.0414289 15.5828C-0.051687 15.7759 0.0890512 16 0.303477 16H17.6964C17.9108 16 18.0515 15.7759 17.9584 15.5828L15.2856 10.0385C15.2371 9.93787 15.1352 9.87391 15.0235 9.87391H2.97629Z" fill="black"/>
</svg>
