<svg width="20" height="20" viewBox="0 0 20 20" fill="none" xmlns="http://www.w3.org/2000/svg">
<rect width="20" height="20" rx="0.5" fill="black"/>
<path fill-rule="evenodd" clip-rule="evenodd" d="M7.01823 9.28278C6.87082 9.28278 6.77406 9.12872 6.83808 8.99592L8.95095 4.61315C8.9843 4.54397 9.05431 4.5 9.13111 4.5H10.8685C10.9453 4.5 11.0153 4.54397 11.0486 4.61315L13.1615 8.99592C13.2255 9.12872 13.1288 9.28278 12.9814 9.28278H7.01823ZM5.85856 11.2883C5.78176 11.2883 5.71175 11.3323 5.6784 11.4015L3.84084 15.2131C3.77682 15.3459 3.87358 15.5 4.021 15.5H15.9786C16.126 15.5 16.2228 15.3459 16.1588 15.2131L14.3212 11.4015C14.2878 11.3323 14.2178 11.2883 14.141 11.2883H5.85856Z" fill="white"/>
</svg>
