<svg width="14" height="14" viewBox="0 0 14 14" fill="none" xmlns="http://www.w3.org/2000/svg">
<rect width="14" height="14" rx="0.175" fill="black"/>
<path d="M5.42289 2.72979H5.29202L5.25503 2.85532L2.8419 11.0453L2.77576 11.2698H3.00977H5.39123H8.57231H10.9822H11.2166L11.15 11.045L8.7222 2.85505L8.68507 2.72979H8.55442H5.42289ZM5.68464 3.25479H8.29311L10.5134 10.7448H8.70377H5.25977H3.47777L5.68464 3.25479ZM7.15013 4.44606L6.98059 3.84794L6.81323 4.44667L5.81923 8.00267L5.75714 8.22478H5.98777H7.98977H8.22127L8.15813 8.00206L7.15013 4.44606ZM6.98412 5.78547L7.52676 7.69978H6.44902L6.98412 5.78547Z" fill="white" stroke="white" stroke-width="0.35"/>
</svg>
